#define battery_empty_width 6
#define battery_empty_height 8
static unsigned char battery_empty_bits[] = {
   0x0c, 0x3f, 0x21, 0x21, 0x21, 0x2d, 0x21, 0x3f };
