#define battery_width 6
#define battery_height 16
static unsigned char battery_bits[] = {
   0x00, 0x00, 0x00, 0x00, 0x0c, 0x3f, 0x21, 0x2d, 0x2d, 0x21, 0x3f, 0x00,
   0x00, 0x00, 0x00, 0x00 };
