#define down_width 7
#define down_height 8
static unsigned char down_bits[] = {
   0x1c, 0x1c, 0x1c, 0x1c, 0x7f, 0x3e, 0x1c, 0x08 };
