#define layout_full_width 14
#define layout_full_height 10
static unsigned char layout_full_bits[] = {
   0xff, 0x3f, 0x01, 0x20, 0x01, 0x20, 0x01, 0x20, 0x01, 0x20, 0x01, 0x20,
   0x01, 0x20, 0x01, 0x20, 0x01, 0x20, 0xff, 0x3f };
