#define layout_tall_width 14
#define layout_tall_height 10
static unsigned char layout_tall_bits[] = {
   0xff, 0x3f, 0x01, 0x22, 0x01, 0x22, 0x01, 0x3e, 0x01, 0x22, 0x01, 0x22,
   0x01, 0x3e, 0x01, 0x22, 0x01, 0x22, 0xff, 0x3f };
