#define layout_grid_width 14
#define layout_grid_height 10
static unsigned char layout_grid_bits[] = {
   0xff, 0x3f, 0x81, 0x20, 0x81, 0x20, 0x81, 0x20, 0x81, 0x20, 0xff, 0x3f,
   0x81, 0x20, 0x81, 0x20, 0x81, 0x20, 0xff, 0x3f };
