#define up_width 7
#define up_height 8
static unsigned char up_bits[] = {
   0x08, 0x1c, 0x3e, 0x7f, 0x1c, 0x1c, 0x1c, 0x1c };
